/* XPM */
static char *d948e140f3354bba8b74fdebb03ec3fbFecf4eeEQTYO79Gw[] = {
/* columns rows colors chars-per-pixel */
"32 30 57 1 ",
"  c None",
". c #2B5896",
"X c #255F9C",
"o c #2A5A98",
"O c #285D9A",
"+ c #22629E",
"@ c #1F64A0",
"# c #1F64A1",
"$ c #1E65A1",
"% c #1F65A1",
"& c #1C67A3",
"* c #1A69A5",
"= c #186CA7",
"- c #176FAA",
"; c #186CA8",
": c #186EAA",
"> c #1771AC",
", c #1771AD",
"< c #1773AE",
"1 c #1773AF",
"2 c #1875B1",
"3 c #1876B1",
"4 c #1878B3",
"5 c #1978B3",
"6 c #197AB5",
"7 c #197BB5",
"8 c #187BB6",
"9 c #127FBA",
"0 c #137FBA",
"q c #167DB8",
"w c #0F82BC",
"e c #0E82BD",
"r c #0F82BD",
"t c #0A84BF",
"y c #0B84BF",
"u c #1280BA",
"i c #0786C1",
"p c #0687C2",
"a c #0787C2",
"s c #0689C4",
"d c #068AC4",
"f c #068BC6",
"g c #068BC7",
"h c #068CC7",
"j c #068EC9",
"k c #0590CB",
"l c #0591CC",
"z c #0493CE",
"x c #0395D0",
"c c #0395D1",
"v c #0197D3",
"b c #0297D3",
"n c #0199D5",
"m c #009AD5",
"M c #009AD6",
"N c #009CD8",
"B c #009EDA",
/* pixels */
"           .                    ",
"           o                    ",
"          OOO                   ",
"         XX+X                   ",
"         ++++                   ",
"        @@@@@  &@@@&@           ",
"        &&&&  &&&&&&&&          ",
"       ***** *********          ",
"      ;;;;=  *==;;==;;;         ",
"      ;;--  -----;;;-;;         ",
"     1>1>>  >>>1>>1>1>1-        ",
"     1111  1111111  1111        ",
"    33333 3333335   33333       ",
"   54545  564445  5  53666      ",
"   6666  6666666 767  6666      ",
"  qqqqq  qqqqqq  qqq  qqqqq     ",
"  uu99  u99u99u u999u  uu0q     ",
" eeuee          eeueui uuiuq    ",
"iiieyyt         iiiiiu  iiiia   ",
"iiaaaiaaaiaaaip iiiiaai iaiia   ",
" gaggpgpggapgpp  aaagga  ggaaa  ",
"  ggggggggghgghh hjjgggj  gjjj  ",
"  hjjjjjjjjjjjjj  jjjjjjj jjjjj ",
"   jkkkkkkkkkkkkj  jjkkkk  kkkkk",
"                   zzzzzk       ",
"                  bzczccc       ",
"  nnnncnnnnnbnbnbbnnbbcb        ",
" nnnnnnnmmmnnnnnnnnnnnbN        ",
" nBnnnBBnBBnBnBBBnBnBBN         ",
"BBBBBBBBBBBBBBBBBBBBBBB         "
};
