/* XPM */
static char *_1d8e0a943814fe594bb35ca0851652fr3DgF3VakyzHrGJj[] = {
/* columns rows colors chars-per-pixel */
"80 75 105 2 ",
"   c None",
".  c #2B5794",
"X  c #2A5895",
"o  c #2A5896",
"O  c #2B5996",
"+  c #2A5A97",
"@  c #275E9B",
"#  c #255F9C",
"$  c #295B99",
"%  c #295C99",
"&  c #295D9A",
"*  c #20639F",
"=  c #21639F",
"-  c #22629E",
";  c #24609C",
":  c #24609D",
">  c #24619D",
",  c #1B67A3",
"<  c #1F64A0",
"1  c #1E65A1",
"2  c #1F65A1",
"3  c #1D66A2",
"4  c #1C67A3",
"5  c #1A68A4",
"6  c #1A69A5",
"7  c #1A6AA5",
"8  c #196AA6",
"9  c #186BA7",
"0  c #196BA7",
"q  c #176FAA",
"w  c #176FAB",
"e  c #186CA8",
"r  c #186DA8",
"t  c #186EA9",
"y  c #1770AC",
"u  c #1771AD",
"i  c #1772AD",
"p  c #1772AE",
"a  c #1773AF",
"s  c #1774AF",
"d  c #1875B0",
"f  c #1876B1",
"g  c #1876B2",
"h  c #1877B2",
"j  c #177CB7",
"k  c #177DB7",
"l  c #1878B3",
"z  c #1979B4",
"x  c #197AB5",
"c  c #197BB6",
"v  c #187CB6",
"b  c #187CB7",
"n  c #127FBA",
"m  c #137FBA",
"M  c #167DB8",
"N  c #157EB9",
"B  c #2063A0",
"V  c #0F82BC",
"C  c #0C83BE",
"Z  c #0D83BE",
"A  c #0C83BF",
"S  c #0B84BF",
"D  c #0C84BF",
"F  c #1180BB",
"G  c #1081BB",
"H  c #1280BA",
"J  c #1280BB",
"K  c #1081BC",
"L  c #0786C1",
"P  c #0687C2",
"I  c #0787C2",
"U  c #0687C3",
"Y  c #0985C0",
"T  c #0886C1",
"R  c #0688C3",
"E  c #0689C4",
"W  c #068AC4",
"Q  c #068AC5",
"!  c #068BC5",
"~  c #068BC6",
"^  c #068CC7",
"/  c #068DC8",
"(  c #068EC9",
")  c #058FCA",
"_  c #0590CB",
"`  c #0491CC",
"'  c #0591CC",
"]  c #0492CD",
"[  c #0493CE",
"{  c #0394CF",
"}  c #0394D0",
"|  c #0295D1",
" . c #0395D1",
".. c #0296D2",
"X. c #0297D3",
"o. c #0198D3",
"O. c #0198D4",
"+. c #0199D4",
"@. c #0199D5",
"#. c #009AD6",
"$. c #009BD7",
"%. c #009CD8",
"&. c #009DD9",
"*. c #009EDA",
"=. c #009FDB",
/* pixels */
"                                                        .                                                                                                       ",
"                                                        + .                                                                                                     ",
"                                                      + + O                                                                                                     ",
"                                                      $ + + +                                                                                                   ",
"                                                    $ $ $ $ +                                                                                                   ",
"                                                  & & & & $ & $                                                                                                 ",
"                                                  & & & & & & &                                                                                                 ",
"                                                & @ @ @ & # & # #                                                                                               ",
"                                                @ ; ; ; # # # # # #                                                                                             ",
"                                              ; ; ; ; ; ; ; ; ; # ;                                                                                             ",
"                                            ; ; ; ; ; ; ; ; ; ; ; ;                                                                                             ",
"                                            = ; B B ; = = = = = =                                                                                               ",
"                                          = < = B = = = = * * * B                                                                                               ",
"                                          < < = B B 4 B = = * <           B B B B 4 = 4 4 B B * B B B B                                                         ",
"                                        4 4 = 4 4 < = 4 = 4 B 4         B B 4 = 4 4 = = B B 4 = 4 B 7 B 4                                                       ",
"                                      4 * 4 4 < 4 < 4 4 4 4 4         4 4 4 4 4 4 B 4 4 4 4 4 4 4 4 B 7 4 4                                                     ",
"                                      , , , , , 4 5 4 , , 4           5 , , 4 5 , , , , , , , , 4 4 7 4 , ,                                                     ",
"                                    , , 8 , 8 , 5 5 5 5 5 5         5 4 5 5 5 4 , , 8 , , , 8 4 7 4 7 7 , , 8                                                   ",
"                                    8 8 8 8 8 , 8 4 8 8 8           5 8 5 8 8 8 8 8 8 4 8 8 8 8 , 7 7 7 8 8 8                                                   ",
"                                  8 8 8 8 8 8 8 8 8 8 8 8         8 8 8 8 8 8 0 8 8 8 8 8 8 8 8 8 7 7 7 8 8 8 8                                                 ",
"                                0 0 0 r 8 8 0 0 0 0 0 0         8 0 0 0 0 0 0 0 8 8 0 0 r 8 8 8 8 8 8 8 t 8 8 8                                                 ",
"                                r 0 r r 8 r 0 r r r r           r r r 0 r r r 0 8 r r r r r r r 8 w t 8 w 8 t 8 r                                               ",
"                              r r r r r r r r r r r r         r r r r r r r r r r r r r r r r r t t 8 t t 8 t t r r                                             ",
"                              r w r r r y r r r r r           r w r r r y r r w r r r r t r r r w t t t t t t t r r                                             ",
"                            w w w w r a w w w w t y         w w a w w w w w w t w w w w w t w w t t y y w w w w y w w                                           ",
"                          w a w w y w w y w y y y         w a w w w a w w w y y w w w w y y y y y y y y y w w w y y a                                           ",
"                          a w a a w a a w y w a a         a w a a w w w y y y y w a w a y a y a y y y y y y y a a w y w                                         ",
"                        a a a a a a w a a a a a         a a a a a a a a a a a a a a a a y       i s a y a a a a a a a a                                         ",
"                        a a a a a a a a a a a           a a a a a a s s a a a a a a a a           s s s a a a a a a a a a                                       ",
"                      a s s s a a a s a s s s         a s s s a s s s s s s s s s a s               s s s s s s s s s a s s                                     ",
"                      f f d d d d d d d d d         f d f d d d d d d d d d d d f d f                 f d d d d d d d d d f                                     ",
"                    f f f f f f d f f f f f         f f f f f f f f f f f f d d f f         f         f f f f f f f f f f f f                                   ",
"                  f l f l f f l f f f f f         l l l l l l l f l l l f l f l f f         f f         f f l f l f f l f f l                                   ",
"                  l l l l l z z z z z f           l l z l l l z l l l l l l l l z         z z z         l f l l l z l f z l l l                                 ",
"                z z z z z z z z z z c z         z z z z f z z z l z z z z z l l         z z z z z         c z c c z z z z z z z c                               ",
"                z z z z z z z z z z c         c z z z z z z z z l z z z z z z z         z z z z z         z z c z z z z z z z z c                               ",
"              M c z c c z c c z z c c         b z z z M j z z z c c c c c c c         c M z M z z M         M c c c c M z c c c z M                             ",
"            M M M k M M M M M M M M         M M M k M M j k M M c M c c c c c         M b b M M b M           M M c M M M M M c M M                             ",
"            M M M M M M M M M M M           M M M M M M k M k k M M M M c H         M M M M M M M M M         M M M M M M M M M M M M                           ",
"          M M H M M M M M m M M M         M M H M M M M k m m k M H H M H         J M M M M J M M M M M         M M M M H M M M M H M                           ",
"          J H H n m m m m m m m         J H H H m m m m m m n n H H M J J         m m m J n n M m m m m         H M J J H M J J J m m M                         ",
"        J J H H J J J J J J J m         J J H H J J J J J J H n H H H H         J J J J J J J J J J J J J         J J J J J J J J J J J J                       ",
"      J V J J J J J m m J J J         J J J J J J V J J J J V m J J J J         V J J J J J n n J J J J J         J J J J J J J J J n m J                       ",
"      J V V V J J m Y m V V V         J V V V J V V V V V V V V V Z J         V V V V V J J Y n V V V V V V         J Z V V V V J J Y J V V                     ",
"    Y J V Y V Y Y n Y Y J Y T V                                               Z V C V V Y V Y K C V C C Z Z           Z C Z Z Z Y J Y m V Y                     ",
"    Y Y T V J Y K Y Y K Y V Y V                                               V C C Y C Y Y K Y C C T C C C Y         Z C C C C J Y Y Y Y V Y                   ",
"  Y J Y Y Y Y Y Y Y J Y Y Y V T T                                             T C C C C Y Y J Y T C V T T C C Z         T C C C Y Y J Y Y Y Y V                 ",
"  Y Y Y Y Y Y Y Y Y Y Y Y Y T Z T T T T T T T T T T T T T T T T T T T T         L T T T Y Y Y Y C T C T C T T T         T C T L Y Y T Y Y Y T T                 ",
"  Y Y I I I I T L E R T R T R T R L R L R L L R L L E L R L R T L R T R         L R T R E L T R L L E L R L R L R         R I I L R L L E L R L R               ",
"    I I L E E U U U L R U U U E L E U U U E R E E L U U L E U U E L R E E         L R E U L E E U U U U L E U U U           R R R E E L U U L E E               ",
"    I ^ E E E E E E E E E E E E E E E E E E E E E E E E E E E E E E E E E E         E E E E E E E E E E E E E E E E         E E E E E E E E E E E E             ",
"      I E ! E ! E E E ! ! E E E ! E ! E E E E E ! E E E ! E ! E E E E ! E E         E E E E E E ! E E E ! E ! E E E E         E E ! E E E E E ! E E             ",
"        ^ / ! ! ! E ! E ! ! ! ! E ! ! ! ! ! ! ! ! ! E ! ! ! E ! ! ! ! ! E ! /         E E ! ! E ! ! E ! ! ! E ! ! ! !         E E ! ! E ! ! ! ! ! ! E           ",
"        I / ! E ! / ! / ! ! / ! / E / E / E / E ! ! / E E / / E ! ! E / / E E         ! / ! ! / ! ! / E E / / E / E / !         / E ! / / E / E ! ! / E         ",
"          / / / / / / E / / / E E / / / / ! / / / / / ! / / / ! E / / / / ! / /         / ! / ! / / / ! / / / ! / ! / !         ! / / / / ! / / / / ! /         ",
"          / / / / / / / / / / / / / / / / / / / / / / / / / / / / / / / / / / /         / / / / / / / / / / / / / / / / /         / / / / / / / / / / / /       ",
"            _ / / / / _ / / _ / / / / / / / / / / / / / / / / / / / / / / / ' / /         _ / _ / / / / / / / / / / / ' /           / _ / / / / / / _ / /       ",
"              / / ' / ' ' / / ' _ / ' _ _ ' _ / ' _ ` / ' _ ' / ' ' ` / ' / / ' / _         / _ _ _ _ _ _ _ _ _ / ' / / ' /         _ / / ' _ / ' ' / / _ _     ",
"              ' ' ' ' / / ' ` ' ' _ ' ' ' _ _ _ ' _ _ _ ' _ ' ' ' / ' ' / ' ` ' ' _         _ _ _ _ _ _ _ _ _ _ ' ' ' ' ' ' '         ' ' ' ' _ ' _ _ _ ' _     ",
"                ` ` ` ` ` ` ` ` ` ` ` ` ` ` ` ` ` ` ` ` ` ` ' ' ' ` ` ` ` ` ` ` ` ` '         ' ` ` ` ` ` ` ' ' ' ' ` ` ` ` '         ' ` ` ` ` ` ` ` ` ` ' '   ",
"                { ' ' { ` { ' ' ' ` { ' { ' ' { ` ' ` ` { ' ' { ` ' { ' ` ' } ' ' { '         ' ` ' ' ` ' { ' ' ' ' ' ' ` ' ` `         ' { ` ' ` ' ` { ' ' { ' ",
"                                                                                              { { { { { ' { { { { { { { ` } { }                                 ",
"                                                                                            { { { { { { { { { { { { { { { { }                                   ",
"                                                                                          } } } } } } } } } } } } } } } } }                                     ",
"                                                                                          } } } } O.} } } } } } } } } } } }                                     ",
"            O.} o.o.} o.o.} o.} } O.O.} } o.o.} } o.} o.o.} } o.o.o.} o.O.} O.} } O.O.} O.} O.} O.} O.} O.o.} O.o.} O.o.O.                                      ",
"          o.O.O.O.o.O.O.O.o.o.o.o.o.O.o.o.o.O.O.O.O.O.o.o.O.O.O.o.o.O.O.o.o.o.o.o.o.o.o.o.o.o.o.O.o.o.o.o.O.O.O.o.o.o.o.O.                                      ",
"        O.O.O.O.O.O.O.O.O.O.O.O.O.O.O.O.O.O.O.O.O.O.O.O.O.O.O.O.O.O.O.O.O.O.O.O.O.O.O.O.O.O.O.O.O.O.O.O.O.O.O.O.O.O.O.O.                                        ",
"        O.O.$.O.O.O.$.O.$.O.O.O.O.O.O.O.O.O.O.O.$.O.$.O.O.O.O.O.O.O.$.O.$.O.$.O.O.O.O.&.O.O.O.&.$.O.$.O.O.O.O.$.O.O.$.                                          ",
"      $.$.O.$.$.$.O.$.O.$.O.&.O.O.$.&.O.O.&.&.O.$.O.$.O.$.$.$.$.$.O.$.O.$.O.$.O.O.&.O.O.O.&.O.O.$.O.$.O.$.$.O.$.$.O.$.                                          ",
"      O.&.O.$.$.O.&.&.O.$.$.O.&.&.O.&.O.&.O.&.O.$.$.O.&.$.$.$.$.O.&.&.O.$.$.$.$.&.&.O.&.&.&.O.&.$.$.$.$.$.$.$.$.$.$.                                            ",
"    $.&.&.$.&.&.$.&.&.$.&.&.&.&.&.&.&.&.&.&.&.&.$.&.&.$.&.$.&.&.&.$.&.&.$.&.$.&.&.O.&.&.&.O.&.&.&.$.&.$.&.$.&.&.$.&.                                            ",
"  &.&.&.&.&.&.&.&.&.&.&.&.&.&.&.&.&.&.&.&.&.&.&.&.&.&.&.&.&.&.&.&.&.&.&.&.&.&.&.&.&.&.&.&.&.&.&.&.&.&.&.&.&.&.&.&.                                              ",
"  =.=.&.=.&.&.=.&.=.=.&.=.&.&.=.=.&.=.&.=.&.=.&.=.&.=.&.&.=.=.&.=.&.&.=.=.&.=.&.=.&.=.&.=.&.=.&.&.=.=.&.=.&.&.=.                                                ",
"=.=.=.=.=.=.=.=.=.=.=.=.=.=.=.=.=.=.=.=.=.=.=.=.=.=.=.=.=.=.=.=.=.=.=.=.=.=.=.=.=.=.=.=.=.=.=.=.=.=.=.=.=.=.=.=.                                                "
};
